<?xml version="1.0" encoding="UTF-8" standalone="no"?>
<!DOCTYPE svg PUBLIC "-//W3C//DTD SVG 1.1//EN" "http://www.w3.org/Graphics/SVG/1.1/DTD/svg11.dtd">
<svg width="100%" height="100%" viewBox="0 0 1024 1024" version="1.1" xmlns="http://www.w3.org/2000/svg" xmlns:xlink="http://www.w3.org/1999/xlink" xml:space="preserve" xmlns:serif="http://www.serif.com/" style="fill-rule:evenodd;clip-rule:evenodd;stroke-linejoin:round;stroke-miterlimit:2;">
    <g transform="matrix(1.9408,0,0,1.9408,-496.614,-392.513)">
        <path d="M486.33,249.818C576.017,248.092 635.044,276.138 638.084,339.753C640.678,394.041 600.741,427.45 556.476,443.012C627.383,455.498 669.443,497.641 670.561,542.94C673.166,648.553 582.437,697.877 501.516,678.064C537.405,654.988 563.905,621.271 566.469,560.427C565.792,483.868 543.942,459.198 500.041,441.387C533.61,422.457 552.475,388.93 551.48,337.255C550.922,292.856 526.002,266.02 486.33,249.818Z" style="fill:rgb(249,187,20);"/>
    </g>
    <g transform="matrix(1.9408,0,0,1.9408,-496.614,-392.513)">
        <path d="M486.33,278.429C462.924,261.34 380.593,273.522 373.207,353.316C366.546,425.272 368.736,677.906 371.077,678.064C422.604,671.841 461.101,635.79 461.186,594.921C461.306,537.182 460.013,384.39 464.003,331.626C466.072,304.269 486.33,278.429 486.33,278.429Z" style="fill:rgb(249,187,20);"/>
    </g>
</svg>
