<?xml version="1.0" encoding="UTF-8" standalone="no"?>
<!DOCTYPE svg PUBLIC "-//W3C//DTD SVG 1.1//EN" "http://www.w3.org/Graphics/SVG/1.1/DTD/svg11.dtd">
<svg width="100%" height="100%" viewBox="0 0 2481 3508" version="1.1" xmlns="http://www.w3.org/2000/svg" xmlns:xlink="http://www.w3.org/1999/xlink" xml:space="preserve" xmlns:serif="http://www.serif.com/" style="fill-rule:evenodd;clip-rule:evenodd;stroke-linejoin:round;stroke-miterlimit:2;">
    <path d="M1251.91,428.539C1251.91,428.539 1179.32,549.919 1134.67,764.384C1113.91,864.109 1099.56,983.785 1100.79,1120.58C1102.12,1210.29 1109.9,1307.31 1128.16,1410.68C1143.99,1500.33 1167.9,1594.61 1200.49,1693.2C1230.14,1778.82 1253.92,1868.69 1273.68,1960.11C1303.13,2096.36 1322.35,2236.27 1330.82,2372.66C1347.07,2634.42 1324.95,2882.53 1263.24,3063.1C1334.8,2884.45 1371.94,2635.64 1366.99,2371.2C1364.38,2232.27 1350.34,2089.11 1323.51,1949.92C1305.39,1855.89 1280.78,1763.86 1251.3,1675.89C1217.76,1580.31 1193.5,1488.63 1175.71,1401.63C1155.16,1301.15 1143.32,1206.88 1138.9,1119.33C1131.35,985.146 1140.29,867.092 1155.68,768.204C1189.07,553.657 1253.64,429.507 1253.64,429.507C1253.91,429.028 1253.74,428.423 1253.26,428.156C1252.78,427.889 1252.18,428.06 1251.91,428.539Z" style="fill:rgb(249,187,20);"/>
</svg>
